<svg width="120" height="32" viewBox="0 0 120 32" fill="none" xmlns="http://www.w3.org/2000/svg">
<g filter="url(#filter0_d_297009_643)">
<path d="M10.436 9.238H13.154L14.486 13.324L15.818 9.238H18.554L16.376 15.178L17.672 18.58L20.876 9.22H24.098L19.112 22H16.556L14.486 16.996L12.434 22H9.86L4.892 9.22H8.096L11.318 18.58L12.578 15.178L10.436 9.238ZM34.7304 19.408V22H25.7484V9.22H34.5684V11.812H28.7004V14.296H33.7404V16.69H28.7004V19.408H34.7304ZM47.6298 18.724C47.6298 19.456 47.4318 20.068 47.0358 20.56C46.6518 21.04 46.1298 21.4 45.4698 21.64C44.8098 21.88 44.0838 22 43.2918 22H37.0638V9.22H44.1738C44.7738 9.22 45.2898 9.382 45.7218 9.706C46.1658 10.018 46.5018 10.426 46.7298 10.93C46.9698 11.434 47.0898 11.956 47.0898 12.496C47.0898 13.096 46.9338 13.672 46.6218 14.224C46.3098 14.764 45.8538 15.172 45.2538 15.448C45.9858 15.664 46.5618 16.048 46.9818 16.6C47.4138 17.152 47.6298 17.86 47.6298 18.724ZM44.6238 18.13C44.6238 17.854 44.5698 17.614 44.4618 17.41C44.3538 17.194 44.2098 17.026 44.0298 16.906C43.8618 16.774 43.6578 16.708 43.4178 16.708H40.0158V19.498H43.2918C43.5438 19.498 43.7658 19.438 43.9578 19.318C44.1618 19.198 44.3238 19.036 44.4438 18.832C44.5638 18.628 44.6238 18.394 44.6238 18.13ZM40.0158 11.74V14.386H42.9138C43.1298 14.386 43.3278 14.338 43.5078 14.242C43.6998 14.146 43.8558 14.002 43.9758 13.81C44.0958 13.606 44.1558 13.354 44.1558 13.054C44.1558 12.766 44.1018 12.526 43.9938 12.334C43.8978 12.142 43.7658 11.998 43.5978 11.902C43.4298 11.794 43.2378 11.74 43.0218 11.74H40.0158Z" fill="#4D5AE5"/>
</g>
<path d="M57.892 12.964C57.856 12.904 57.73 12.814 57.514 12.694C57.298 12.562 57.028 12.424 56.704 12.28C56.38 12.136 56.026 12.01 55.642 11.902C55.258 11.794 54.874 11.74 54.49 11.74C53.986 11.74 53.596 11.83 53.32 12.01C53.044 12.178 52.906 12.442 52.906 12.802C52.906 13.09 53.008 13.318 53.212 13.486C53.428 13.654 53.734 13.804 54.13 13.936C54.526 14.056 55.012 14.2 55.588 14.368C56.404 14.584 57.112 14.848 57.712 15.16C58.312 15.46 58.768 15.85 59.08 16.33C59.404 16.81 59.566 17.446 59.566 18.238C59.566 18.958 59.434 19.57 59.17 20.074C58.906 20.566 58.546 20.968 58.09 21.28C57.646 21.58 57.136 21.802 56.56 21.946C55.984 22.078 55.39 22.144 54.778 22.144C54.154 22.144 53.512 22.084 52.852 21.964C52.204 21.832 51.58 21.652 50.98 21.424C50.38 21.184 49.828 20.896 49.324 20.56L50.62 17.986C50.668 18.046 50.824 18.16 51.088 18.328C51.352 18.484 51.676 18.652 52.06 18.832C52.456 19 52.894 19.15 53.374 19.282C53.854 19.414 54.34 19.48 54.832 19.48C55.36 19.48 55.75 19.396 56.002 19.228C56.266 19.06 56.398 18.826 56.398 18.526C56.398 18.202 56.26 17.95 55.984 17.77C55.72 17.59 55.354 17.428 54.886 17.284C54.43 17.14 53.902 16.978 53.302 16.798C52.522 16.558 51.874 16.288 51.358 15.988C50.854 15.688 50.476 15.322 50.224 14.89C49.984 14.458 49.864 13.918 49.864 13.27C49.864 12.37 50.074 11.614 50.494 11.002C50.926 10.378 51.502 9.91 52.222 9.598C52.942 9.274 53.728 9.112 54.58 9.112C55.18 9.112 55.756 9.184 56.308 9.328C56.872 9.472 57.394 9.652 57.874 9.868C58.366 10.084 58.804 10.3 59.188 10.516L57.892 12.964ZM71.5762 11.812H67.6882V22H64.7362V11.812H60.8302V9.22H71.5762V11.812ZM79.0479 22.108C78.0279 22.108 77.1579 21.94 76.4379 21.604C75.7179 21.256 75.1299 20.788 74.6739 20.2C74.2299 19.6 73.8999 18.922 73.6839 18.166C73.4799 17.398 73.3779 16.594 73.3779 15.754V9.22H76.3299V15.754C76.3299 16.234 76.3779 16.702 76.4739 17.158C76.5699 17.602 76.7259 17.998 76.9419 18.346C77.1579 18.694 77.4339 18.97 77.7699 19.174C78.1179 19.378 78.5439 19.48 79.0479 19.48C79.5639 19.48 79.9959 19.378 80.3439 19.174C80.6919 18.958 80.9679 18.676 81.1719 18.328C81.3759 17.968 81.5259 17.566 81.6219 17.122C81.7179 16.678 81.7659 16.222 81.7659 15.754V9.22H84.7179V15.754C84.7179 16.642 84.6039 17.47 84.3759 18.238C84.1599 19.006 83.8239 19.684 83.3679 20.272C82.9119 20.848 82.3239 21.298 81.6039 21.622C80.8959 21.946 80.0439 22.108 79.0479 22.108ZM87.5452 22V9.22H92.3152C93.7192 9.22 94.8892 9.508 95.8252 10.084C96.7732 10.648 97.4872 11.416 97.9672 12.388C98.4472 13.348 98.6872 14.416 98.6872 15.592C98.6872 16.888 98.4232 18.016 97.8952 18.976C97.3672 19.936 96.6232 20.68 95.6632 21.208C94.7152 21.736 93.5992 22 92.3152 22H87.5452ZM95.6812 15.592C95.6812 14.848 95.5492 14.194 95.2852 13.63C95.0212 13.054 94.6372 12.61 94.1332 12.298C93.6292 11.974 93.0232 11.812 92.3152 11.812H90.4972V19.408H92.3152C93.0352 19.408 93.6412 19.246 94.1332 18.922C94.6372 18.586 95.0212 18.13 95.2852 17.554C95.5492 16.966 95.6812 16.312 95.6812 15.592ZM100.97 22V9.22H103.922V22H100.97ZM112.504 22.108C111.544 22.108 110.674 21.928 109.894 21.568C109.126 21.196 108.46 20.704 107.896 20.092C107.344 19.468 106.918 18.772 106.618 18.004C106.318 17.224 106.168 16.42 106.168 15.592C106.168 14.74 106.324 13.93 106.636 13.162C106.96 12.394 107.404 11.71 107.968 11.11C108.544 10.498 109.222 10.018 110.002 9.67C110.782 9.322 111.634 9.148 112.558 9.148C113.506 9.148 114.364 9.334 115.132 9.706C115.912 10.066 116.578 10.558 117.13 11.182C117.694 11.806 118.126 12.508 118.426 13.288C118.726 14.056 118.876 14.842 118.876 15.646C118.876 16.498 118.72 17.308 118.408 18.076C118.096 18.844 117.652 19.534 117.076 20.146C116.5 20.746 115.822 21.226 115.042 21.586C114.274 21.934 113.428 22.108 112.504 22.108ZM109.174 15.628C109.174 16.12 109.246 16.6 109.39 17.068C109.534 17.524 109.744 17.932 110.02 18.292C110.308 18.652 110.662 18.94 111.082 19.156C111.502 19.372 111.982 19.48 112.522 19.48C113.086 19.48 113.578 19.372 113.998 19.156C114.418 18.928 114.766 18.628 115.042 18.256C115.318 17.884 115.522 17.47 115.654 17.014C115.798 16.546 115.87 16.072 115.87 15.592C115.87 15.1 115.798 14.626 115.654 14.17C115.51 13.714 115.294 13.306 115.006 12.946C114.718 12.574 114.364 12.286 113.944 12.082C113.524 11.878 113.05 11.776 112.522 11.776C111.958 11.776 111.466 11.884 111.046 12.1C110.638 12.316 110.29 12.61 110.002 12.982C109.726 13.342 109.516 13.756 109.372 14.224C109.24 14.68 109.174 15.148 109.174 15.628Z" fill="#2E2F42"/>
<defs>
<filter id="filter0_d_297009_643" x="0.89209" y="9.21997" width="50.7378" height="20.78" filterUnits="userSpaceOnUse" color-interpolation-filters="sRGB">
<feFlood flood-opacity="0" result="BackgroundImageFix"/>
<feColorMatrix in="SourceAlpha" type="matrix" values="0 0 0 0 0 0 0 0 0 0 0 0 0 0 0 0 0 0 127 0" result="hardAlpha"/>
<feOffset dy="4"/>
<feGaussianBlur stdDeviation="2"/>
<feComposite in2="hardAlpha" operator="out"/>
<feColorMatrix type="matrix" values="0 0 0 0 0 0 0 0 0 0 0 0 0 0 0 0 0 0 0.25 0"/>
<feBlend mode="normal" in2="BackgroundImageFix" result="effect1_dropShadow_297009_643"/>
<feBlend mode="normal" in="SourceGraphic" in2="effect1_dropShadow_297009_643" result="shape"/>
</filter>
</defs>
</svg>
